# xmcd CD database file
#
# Track frame offsets:
#	150
#	13018
#	33249
#	55277
#	76542
#
# Disc length: 1239 seconds
#
# Revision: 3
# Processed by: cddbd v1.5.2PL0 Copyright (c) Steve Scherf et al.
# Submitted via: CDex 1.70beta3
#
DISCID=2c04d505
DTITLE=下田麻美 - DREAM
DYEAR=2010
DGENRE=JPop
TTITLE0=TRIBE
TTITLE1=強くDAYDREAMER
TTITLE2=夢の続き
TTITLE3=lost
TTITLE4=道標
EXTD=YEAR: 2010
EXTT0=
EXTT1=
EXTT2=
EXTT3=
EXTT4=
PLAYORDER=
